HIERARCHY
ROOT ui
{
	 OFFSET 0 0 0
	 CHANNELS 3 XPosition YPosition Z Position
	 EndSite
	 {
	 OFFSET 0 -1 0
	 }
}
ROOT li
{
	 OFFSET 0 0 0
	 CHANNELS 3 XPosition YPosition Z Position
	 EndSite
	 {
	 OFFSET 0 -1 0
	 }
}
ROOT ul
{
	 OFFSET 0 0 0
	 CHANNELS 3 XPosition YPosition Z Position
	 EndSite
	 {
	 OFFSET 0 -1 0
	 }
}
ROOT ll
{
	 OFFSET 0 0 0
	 CHANNELS 3 XPosition YPosition Z Position
	 EndSite
	 {
	 OFFSET 0 -1 0
	 }
}
ROOT tt
{
	 OFFSET 0 0 0
	 CHANNELS 3 XPosition YPosition Z Position
	 EndSite
	 {
	 OFFSET 0 -1 0
	 }
}
ROOT tb
{
	 OFFSET 0 0 0
	 CHANNELS 3 XPosition YPosition Z Position
	 EndSite
	 {
	 OFFSET 0 -1 0
	 }
}
ROOT td
{
	 OFFSET 0 0 0
	 CHANNELS 3 XPosition YPosition Z Position
	 EndSite
	 {
	 OFFSET 0 -1 0
	 }
}
ROOT v
{
	 OFFSET 0 0 0
	 CHANNELS 3 XPosition YPosition Z Position
	 EndSite
	 {
	 OFFSET 0 -1 0
	 }
}
ROOT bn
{
	 OFFSET 0 0 0
	 CHANNELS 3 XPosition YPosition Z Position
	 EndSite
	 {
	 OFFSET 0 -1 0
	 }
}
MOTION
Frames: 21
Frame Time: 0.002
1.1720500141382217E-4	0.004373631000518799	0		0.4564258117675781	-2.436585205078125	0		-0.948228271484375	0.20342605590820312	0		-0.5022895202636719	-2.8704677734375	0		1.5055072021484375	-0.5454171142578125	0		3.14252587890625	-0.4323006286621094	0		4.38578662109375	-0.40684689331054685	0		5.975916015625	0.544697509765625	0		-0.27101385498046876	5.88388525390625	0		
2.474350035190582E-4	0.004107460021972657	0		0.4466701049804688	-2.428758544921875	0		-0.88502783203125	0.21160842895507812	0		-0.5041219787597656	-2.872726318359375	0		1.4996988525390624	-0.5396043090820313	0		3.118580322265625	-0.4423040771484375	0		4.38894140625	-0.40505587768554685	0		5.97996826171875	0.5365103759765625	0		-0.268113037109375	5.86958935546875	0		
3.5982298851013186E-4	0.003861053943634033	0		0.4687525329589844	-2.438181884765625	0		-0.8899530639648437	0.20738734436035156	0		-0.46999765014648437	-2.878269287109375	0		1.4967879638671875	-0.54379638671875	0		3.112769287109375	-0.4344400634765625	0		4.38012109375	-0.39814202880859373	0		5.96700341796875	0.5284891967773437	0		-0.2681135559082031	5.86933740234375	0		
-0.0035796570777893067	-3.3145400881767274E-4	0		0.43197921752929686	-2.428087646484375	0		-0.8898629150390625	0.2071438446044922	0		-0.48279705810546875	-2.8723955078125	0		1.4938590087890624	-0.547968505859375	0		3.11880419921875	-0.44265676879882815	0		4.398146484375	-0.4074354248046875	0		5.96708740234375	0.528377685546875	0		-0.30316485595703124	5.8654013671875	0		
-0.0035040431022644045	-5.382019877433777E-4	0		0.4410330505371094	-2.436361572265625	0		-0.958755126953125	0.21150033569335938	0		-0.5036748962402344	-2.8734345703125	0		1.496978515625	-0.54417236328125	0		3.121123291015625	-0.4148223876953125	0		4.3892802734375	-0.401483642578125	0		5.97122021484375	0.5362496948242188	0		-0.28711642456054687	5.8750537109375	0		
5.867220163345337E-4	0.0032403740882873534	0		0.44719332885742186	-2.429591796875	0		-0.8847042846679688	0.21067440795898437	0		-0.49751504516601563	-2.86768212890625	0		1.5060286865234376	-0.5464081420898438	0		3.127120849609375	-0.4230032043457031	0		4.3994619140625	-0.3876756896972656	0		5.98026708984375	0.5360953979492188	0		-0.2871661987304687	5.87486083984375	0		
6.265230178833008E-4	0.0030708351135253905	0		0.4363262634277344	-2.42366162109375	0		-0.8955923461914063	0.2195811767578125	0		-0.506341064453125	-2.857785400390625	0		1.5110277099609375	-0.5525930786132812	0		3.125277099609375	-0.41010183715820314	0		4.39344189453125	-0.39571786499023437	0		5.99237255859375	0.5449295654296875	0		-0.2692630920410156	5.87053564453125	0		
-0.0033834159374237062	-0.0010483750104904174	0		0.4363900146484375	-2.42380712890625	0		-0.8955726318359375	0.21941348266601562	0		-0.47229632568359375	-2.86123046875	0		1.5080269775390625	-0.5566954345703125	0		3.13232373046875	-0.4082611389160156	0		4.39953857421875	-0.38784786987304687	0		5.99238720703125	0.5448765869140625	0		-0.2703290710449219	5.87138671875	0		
-0.0033752310276031496	-0.0011861809492111205	0		0.4323948059082031	-2.428904541015625	0		-0.90060107421875	0.21530345153808594	0		-0.5031836242675781	-2.854117431640625	0		1.5020941162109376	-0.5507596435546875	0		3.1004228515625	-0.39808303833007813	0		4.3975361328125	-0.3898995666503906	0		5.9842451171875	0.5279005737304687	0		-0.27041342163085935	5.8712451171875	0		
-0.0033804910182952883	-0.0013107490539550782	0		0.4453998413085937	-2.432130859375	0		-0.895576416015625	0.21912391662597655	0		-0.46212335205078126	-2.8515908203125	0		1.5080467529296875	-0.5569118041992187	0		3.128289306640625	-0.41439443969726564	0		4.39047021484375	-0.39790081787109377	0		5.980298828125	0.5358970947265626	0		-0.28847116088867186	5.87526611328125	0		
0.010561108589172363	-0.006539741039276123	0		0.45736602783203123	-2.438337158203125	0		-0.96556005859375	0.2235806884765625	0		-0.4750426025390625	-2.84460205078125	0		1.480980712890625	-0.563779541015625	0		3.151543701171875	-0.3826572265625	0		4.40160009765625	-0.3810462951660156	0		5.996416015625	0.5527315063476562	0		-0.28757525634765624	5.87414111328125	0		
6.109899878501892E-4	0.0024411609172821044	0		0.43850393676757815	-2.4222763671875	0		-0.891590576171875	0.2228529052734375	0		-0.4588843688964844	-2.826843017578125	0		1.52195263671875	-0.56520361328125	0		3.138507080078125	-0.38461279296875	0		4.39260498046875	-0.3780199890136719	0		5.9843095703125	0.5438025512695313	0		-0.30474615478515626	5.86517724609375	0		
-0.0034545900821685792	-0.0016168930530548096	0		0.4344647216796875	-2.42632958984375	0		-0.901616943359375	0.22383470153808593	0		-0.4898353576660156	-2.8206826171875	0		1.4769112548828125	-0.5669053955078125	0		3.12949560546875	-0.3825954895019531	0		4.3944521484375	-0.39307965087890623	0		5.992279296875	0.5447099609375	0		-0.2707939147949219	5.87080029296875	0		
5.396360158920288E-4	0.002268990993499756	0		0.441358154296875	-2.4374638671875	0		-0.9016578369140625	0.2237451477050781	0		-0.4868138122558594	-2.816793212890625	0		1.515826904296875	-0.5732945556640625	0		3.119477294921875	-0.38056329345703127	0		4.39254150390625	-0.3781018981933594	0		5.98422705078125	0.54375341796875	0		-0.2708812255859375	5.871716796875	0		
-0.0035370900630950926	-0.001768159031867981	0		0.4433518676757813	-2.435546875	0		-0.9657096557617187	0.2231962890625	0		-0.5117249450683594	-2.803661376953125	0		1.4816734619140626	-0.5870702514648437	0		3.11557763671875	-0.3635742797851563	0		4.4014755859375	-0.3812087097167969	0		5.9921865234375	0.54466845703125	0		-0.28994189453125	5.87580126953125	0		
4.486660063266754E-4	0.0021386010646820067	0		0.4473645935058594	-2.43063671875	0		-0.8967195434570312	0.22755859375	0		-0.46768597412109375	-2.796089111328125	0		1.490614013671875	-0.5891931762695313	0		3.12147509765625	-0.3706596984863281	0		4.401431640625	-0.38123492431640627	0		5.992267578125	0.5606539306640625	0		-0.2910259094238281	5.8767470703125	0		
3.999960124492645E-4	0.0020886719226837157	0		0.43839913940429687	-2.422609619140625	0		-0.902736572265625	0.23155184936523437	0		-0.4715830078125	-2.78010986328125	0		1.48642919921875	-0.6061991577148438	0		3.154493896484375	-0.3629606628417969	0		4.40138525390625	-0.3812543334960937	0		5.98714892578125	0.5526870727539063	0		-0.30620559692382815	5.8658193359375	0		
-0.003680901050567627	-0.0019184980392456055	0		0.4602918701171875	-2.431828125	0		-0.9018521118164062	0.22349769592285157	0		-0.47447265625	-2.763129150390625	0		1.51827685546875	-0.6194932861328125	0		3.13845703125	-0.3618485412597656	0		4.4084384765625	-0.36932418823242186	0		5.98709765625	0.5526856689453125	0		-0.2722351684570313	5.87249658203125	0		
-0.003725886106491089	-0.0019498159885406494	0		0.43228009033203124	-2.429625732421875	0		-0.9068654174804688	0.2275016326904297	0		-0.4704668884277344	-2.759196533203125	0		1.5091455078125	-0.630440185546875	0		3.132406494140625	-0.3628099975585938	0		4.41028076171875	-0.3833428955078125	0		5.987048828125	0.5526931762695313	0		-0.25822805786132813	5.88334765625	0		
-0.003764837026596069	-0.001972579002380371	0		0.4411916198730469	-2.437719482421875	0		-0.8969063110351563	0.22739031982421876	0		-0.4614048767089844	-2.749297119140625	0		1.4759967041015625	-0.6441803588867188	0		3.128328857421875	-0.36777813720703123	0		4.4213837890625	-0.36642654418945314	0		5.99193994140625	0.544670654296875	0		-0.27141403198242187	5.8704306640625	0		
0.004263317108154297	0.004947021007537842	0		0.39228106689453124	-2.42532763671875	0		-0.8869457397460937	0.22628704833984375	0		-0.45720791625976565	-2.7243486328125	0		1.5229130859375	-0.651570068359375	0		3.147515869140625	-0.34192620849609373	0		4.42440673828125	-0.3604326171875	0		5.99190673828125	0.5447012329101563	0		-0.24032366943359376	5.89015869140625	0		
